<svg xmlns="http://www.w3.org/2000/svg" viewBox="0 0 280 120" width="280" height="120" role="img" aria-labelledby="t d">
  <title id="t">Autoencoder cell classifier</title>
  <desc id="d">Thirty cells, five of them coloured and labelled by hand and the rest empty outlines; an arrow; the same thirty cells on the right all coloured.</desc>
<circle cx="16" cy="34" r="3.4" fill="#F472B6"/>
<circle cx="26" cy="34" r="3.4" fill="#22D3EE"/>
<circle cx="36" cy="34" r="3.4" fill="#F472B6"/>
<circle cx="46" cy="34" r="3.4" fill="#22D3EE"/>
<circle cx="56" cy="34" r="3.4" fill="#F472B6"/>
<circle cx="66" cy="34" r="3.4" fill="none" stroke="#9AA6C4" stroke-width="1.3"/>
<circle cx="76" cy="34" r="3.4" fill="none" stroke="#9AA6C4" stroke-width="1.3"/>
<circle cx="86" cy="34" r="3.4" fill="none" stroke="#9AA6C4" stroke-width="1.3"/>
<circle cx="96" cy="34" r="3.4" fill="none" stroke="#9AA6C4" stroke-width="1.3"/>
<circle cx="106" cy="34" r="3.4" fill="none" stroke="#9AA6C4" stroke-width="1.3"/>
<circle cx="16" cy="52" r="3.4" fill="none" stroke="#9AA6C4" stroke-width="1.3"/>
<circle cx="26" cy="52" r="3.4" fill="none" stroke="#9AA6C4" stroke-width="1.3"/>
<circle cx="36" cy="52" r="3.4" fill="none" stroke="#9AA6C4" stroke-width="1.3"/>
<circle cx="46" cy="52" r="3.4" fill="none" stroke="#9AA6C4" stroke-width="1.3"/>
<circle cx="56" cy="52" r="3.4" fill="none" stroke="#9AA6C4" stroke-width="1.3"/>
<circle cx="66" cy="52" r="3.4" fill="none" stroke="#9AA6C4" stroke-width="1.3"/>
<circle cx="76" cy="52" r="3.4" fill="none" stroke="#9AA6C4" stroke-width="1.3"/>
<circle cx="86" cy="52" r="3.4" fill="none" stroke="#9AA6C4" stroke-width="1.3"/>
<circle cx="96" cy="52" r="3.4" fill="none" stroke="#9AA6C4" stroke-width="1.3"/>
<circle cx="106" cy="52" r="3.4" fill="none" stroke="#9AA6C4" stroke-width="1.3"/>
<circle cx="16" cy="70" r="3.4" fill="none" stroke="#9AA6C4" stroke-width="1.3"/>
<circle cx="26" cy="70" r="3.4" fill="none" stroke="#9AA6C4" stroke-width="1.3"/>
<circle cx="36" cy="70" r="3.4" fill="none" stroke="#9AA6C4" stroke-width="1.3"/>
<circle cx="46" cy="70" r="3.4" fill="none" stroke="#9AA6C4" stroke-width="1.3"/>
<circle cx="56" cy="70" r="3.4" fill="none" stroke="#9AA6C4" stroke-width="1.3"/>
<circle cx="66" cy="70" r="3.4" fill="none" stroke="#9AA6C4" stroke-width="1.3"/>
<circle cx="76" cy="70" r="3.4" fill="none" stroke="#9AA6C4" stroke-width="1.3"/>
<circle cx="86" cy="70" r="3.4" fill="none" stroke="#9AA6C4" stroke-width="1.3"/>
<circle cx="96" cy="70" r="3.4" fill="none" stroke="#9AA6C4" stroke-width="1.3"/>
<circle cx="106" cy="70" r="3.4" fill="none" stroke="#9AA6C4" stroke-width="1.3"/>
  <text x="61" y="100" font-size="12" fill="#9AA6C4" text-anchor="middle" font-family="sans-serif">label 5</text>
  <path d="M126 58 h18 m-5 -5 l5 5 -5 5" stroke="#9AA6C4" stroke-width="2" fill="none" stroke-linecap="round" stroke-linejoin="round"/>
<circle cx="162" cy="34" r="3.4" fill="#F472B6"/>
<circle cx="172" cy="34" r="3.4" fill="#22D3EE"/>
<circle cx="182" cy="34" r="3.4" fill="#F472B6"/>
<circle cx="192" cy="34" r="3.4" fill="#22D3EE"/>
<circle cx="202" cy="34" r="3.4" fill="#F472B6"/>
<circle cx="212" cy="34" r="3.4" fill="#22D3EE"/>
<circle cx="222" cy="34" r="3.4" fill="#F472B6"/>
<circle cx="232" cy="34" r="3.4" fill="#22D3EE"/>
<circle cx="242" cy="34" r="3.4" fill="#F472B6"/>
<circle cx="252" cy="34" r="3.4" fill="#22D3EE"/>
<circle cx="162" cy="52" r="3.4" fill="#F472B6"/>
<circle cx="172" cy="52" r="3.4" fill="#22D3EE"/>
<circle cx="182" cy="52" r="3.4" fill="#F472B6"/>
<circle cx="192" cy="52" r="3.4" fill="#22D3EE"/>
<circle cx="202" cy="52" r="3.4" fill="#F472B6"/>
<circle cx="212" cy="52" r="3.4" fill="#22D3EE"/>
<circle cx="222" cy="52" r="3.4" fill="#F472B6"/>
<circle cx="232" cy="52" r="3.4" fill="#22D3EE"/>
<circle cx="242" cy="52" r="3.4" fill="#F472B6"/>
<circle cx="252" cy="52" r="3.4" fill="#22D3EE"/>
<circle cx="162" cy="70" r="3.4" fill="#F472B6"/>
<circle cx="172" cy="70" r="3.4" fill="#22D3EE"/>
<circle cx="182" cy="70" r="3.4" fill="#F472B6"/>
<circle cx="192" cy="70" r="3.4" fill="#22D3EE"/>
<circle cx="202" cy="70" r="3.4" fill="#F472B6"/>
<circle cx="212" cy="70" r="3.4" fill="#22D3EE"/>
<circle cx="222" cy="70" r="3.4" fill="#F472B6"/>
<circle cx="232" cy="70" r="3.4" fill="#22D3EE"/>
<circle cx="242" cy="70" r="3.4" fill="#F472B6"/>
<circle cx="252" cy="70" r="3.4" fill="#22D3EE"/>
  <text x="207" y="100" font-size="12" fill="#9AA6C4" text-anchor="middle" font-family="sans-serif">get 30</text>
</svg>
