<svg xmlns="http://www.w3.org/2000/svg" viewBox="0 0 280 120" width="280" height="120" role="img" aria-labelledby="t d">
  <title id="t">Linked embedding</title>
  <desc id="d">A UMAP scatter on the left with one group brushed; an arrow to a tissue view on the right where the corresponding cells are highlighted.</desc>
<circle cx="42.3" cy="69.6" r="2.5" fill="#9AA6C4" opacity="0.45"/>
<circle cx="57.8" cy="75.9" r="2.5" fill="#9AA6C4" opacity="0.45"/>
<circle cx="59.2" cy="68.3" r="2.5" fill="#9AA6C4" opacity="0.45"/>
<circle cx="53.0" cy="66.1" r="2.5" fill="#9AA6C4" opacity="0.45"/>
<circle cx="40.4" cy="65.1" r="2.5" fill="#9AA6C4" opacity="0.45"/>
<circle cx="57.7" cy="69.7" r="2.5" fill="#9AA6C4" opacity="0.45"/>
<circle cx="47.5" cy="60.9" r="2.5" fill="#9AA6C4" opacity="0.45"/>
<circle cx="49.2" cy="63.7" r="2.5" fill="#9AA6C4" opacity="0.45"/>
<circle cx="50.3" cy="71.7" r="2.5" fill="#9AA6C4" opacity="0.45"/>
<circle cx="37.5" cy="67.6" r="2.5" fill="#9AA6C4" opacity="0.45"/>
<circle cx="40.4" cy="62.8" r="2.5" fill="#9AA6C4" opacity="0.45"/>
<circle cx="41.6" cy="74.4" r="2.5" fill="#9AA6C4" opacity="0.45"/>
<circle cx="93.6" cy="39.6" r="2.5" fill="#22D3EE" opacity="1"/>
<circle cx="82.9" cy="27.6" r="2.5" fill="#22D3EE" opacity="1"/>
<circle cx="84.6" cy="37.5" r="2.5" fill="#22D3EE" opacity="1"/>
<circle cx="87.4" cy="41.0" r="2.5" fill="#22D3EE" opacity="1"/>
<circle cx="85.7" cy="45.8" r="2.5" fill="#22D3EE" opacity="1"/>
<circle cx="91.8" cy="45.9" r="2.5" fill="#22D3EE" opacity="1"/>
<circle cx="90.2" cy="34.2" r="2.5" fill="#22D3EE" opacity="1"/>
<circle cx="81.4" cy="41.3" r="2.5" fill="#22D3EE" opacity="1"/>
<circle cx="96.4" cy="37.1" r="2.5" fill="#22D3EE" opacity="1"/>
<circle cx="91.6" cy="33.9" r="2.5" fill="#22D3EE" opacity="1"/>
<circle cx="40.3" cy="31.8" r="2.5" fill="#9AA6C4" opacity="0.45"/>
<circle cx="33.2" cy="29.0" r="2.5" fill="#9AA6C4" opacity="0.45"/>
<circle cx="44.3" cy="35.0" r="2.5" fill="#9AA6C4" opacity="0.45"/>
<circle cx="52.3" cy="38.1" r="2.5" fill="#9AA6C4" opacity="0.45"/>
<circle cx="47.8" cy="34.4" r="2.5" fill="#9AA6C4" opacity="0.45"/>
<circle cx="31.5" cy="34.2" r="2.5" fill="#9AA6C4" opacity="0.45"/>
<circle cx="36.8" cy="37.4" r="2.5" fill="#9AA6C4" opacity="0.45"/>
<circle cx="41.4" cy="31.4" r="2.5" fill="#9AA6C4" opacity="0.45"/>
<circle cx="39.3" cy="31.8" r="2.5" fill="#9AA6C4" opacity="0.45"/>
  <rect x="72" y="20" width="34" height="32" rx="3" fill="#22D3EE" fill-opacity="0.12" stroke="#22D3EE" stroke-width="1.4" stroke-dasharray="4 3"/>
  <text x="66" y="104" font-size="12" fill="#9AA6C4" text-anchor="middle" font-family="sans-serif">embedding</text>
  <path d="M124 56 h22 m-6 -5 l6 5 -6 5" stroke="#22D3EE" stroke-width="2" fill="none" stroke-linecap="round" stroke-linejoin="round"/>
  <rect x="160" y="20" width="108" height="68" rx="5" fill="#F472B6" fill-opacity="0.10" stroke="#9AA6C4" stroke-width="1" stroke-opacity="0.55"/>
<circle cx="230.3" cy="68.8" r="2.3" fill="#9AA6C4" opacity="0.4"/>
<circle cx="215.9" cy="54.6" r="2.3" fill="#9AA6C4" opacity="0.4"/>
<circle cx="204.2" cy="79.8" r="2.3" fill="#9AA6C4" opacity="0.4"/>
<circle cx="194.6" cy="35.7" r="2.3" fill="#9AA6C4" opacity="0.4"/>
<circle cx="192.0" cy="41.5" r="2.3" fill="#9AA6C4" opacity="0.4"/>
<circle cx="198.1" cy="41.9" r="2.3" fill="#9AA6C4" opacity="0.4"/>
<circle cx="177.9" cy="44.9" r="2.3" fill="#9AA6C4" opacity="0.4"/>
<circle cx="196.6" cy="57.6" r="2.3" fill="#9AA6C4" opacity="0.4"/>
<circle cx="186.6" cy="31.7" r="2.3" fill="#9AA6C4" opacity="0.4"/>
<circle cx="186.6" cy="56.2" r="2.3" fill="#9AA6C4" opacity="0.4"/>
<circle cx="203.7" cy="66.1" r="2.3" fill="#9AA6C4" opacity="0.4"/>
<circle cx="241.9" cy="49.6" r="2.3" fill="#9AA6C4" opacity="0.4"/>
<circle cx="177.1" cy="65.9" r="2.3" fill="#9AA6C4" opacity="0.4"/>
<circle cx="237.5" cy="48.6" r="2.3" fill="#9AA6C4" opacity="0.4"/>
<circle cx="228.6" cy="43.6" r="2.3" fill="#9AA6C4" opacity="0.4"/>
<circle cx="252.2" cy="71.4" r="2.3" fill="#9AA6C4" opacity="0.4"/>
<circle cx="240.9" cy="77.6" r="2.3" fill="#9AA6C4" opacity="0.4"/>
<circle cx="189.4" cy="56.4" r="2.3" fill="#9AA6C4" opacity="0.4"/>
<circle cx="235.3" cy="69.7" r="2.3" fill="#9AA6C4" opacity="0.4"/>
<circle cx="203.9" cy="35.2" r="2.3" fill="#9AA6C4" opacity="0.4"/>
<circle cx="225.6" cy="33.4" r="2.3" fill="#9AA6C4" opacity="0.4"/>
<circle cx="232.9" cy="28.4" r="2.3" fill="#9AA6C4" opacity="0.4"/>
<circle cx="209.8" cy="52.9" r="2.3" fill="#9AA6C4" opacity="0.4"/>
<circle cx="179.0" cy="53.0" r="2.3" fill="#9AA6C4" opacity="0.4"/>
<circle cx="211.0" cy="45.6" r="2.7" fill="#22D3EE" opacity="1.0"/>
<circle cx="222.9" cy="58.5" r="2.7" fill="#22D3EE" opacity="1.0"/>
<circle cx="222.7" cy="42.4" r="2.7" fill="#22D3EE" opacity="1.0"/>
<circle cx="196.8" cy="45.8" r="2.7" fill="#22D3EE" opacity="1.0"/>
<circle cx="199.4" cy="54.3" r="2.7" fill="#22D3EE" opacity="1.0"/>
<circle cx="203.9" cy="39.3" r="2.7" fill="#22D3EE" opacity="1.0"/>
<circle cx="204.5" cy="46.5" r="2.7" fill="#22D3EE" opacity="1.0"/>
<circle cx="218.1" cy="48.0" r="2.7" fill="#22D3EE" opacity="1.0"/>
<circle cx="205.0" cy="53.6" r="2.7" fill="#22D3EE" opacity="1.0"/>
  <text x="214" y="104" font-size="12" fill="#9AA6C4" text-anchor="middle" font-family="sans-serif">the slide</text>
</svg>
