<svg xmlns="http://www.w3.org/2000/svg" viewBox="0 0 280 120" width="280" height="120" role="img" aria-labelledby="t d">
  <title id="t">Spatial feature smoothing</title>
  <desc id="d">A grid of randomly interleaved cyan and pink tiles on the left; an arrow; the same grid on the right resolved into one solid cyan region beside one solid pink region.</desc>
<rect x="14" y="28" width="11" height="11" rx="2" fill="#22D3EE" opacity="0.85"/>
<rect x="14" y="41" width="11" height="11" rx="2" fill="#F472B6" opacity="0.85"/>
<rect x="14" y="54" width="11" height="11" rx="2" fill="#22D3EE" opacity="0.85"/>
<rect x="14" y="67" width="11" height="11" rx="2" fill="#F472B6" opacity="0.85"/>
<rect x="14" y="80" width="11" height="11" rx="2" fill="#F472B6" opacity="0.85"/>
<rect x="27" y="28" width="11" height="11" rx="2" fill="#22D3EE" opacity="0.85"/>
<rect x="27" y="41" width="11" height="11" rx="2" fill="#22D3EE" opacity="0.85"/>
<rect x="27" y="54" width="11" height="11" rx="2" fill="#F472B6" opacity="0.85"/>
<rect x="27" y="67" width="11" height="11" rx="2" fill="#22D3EE" opacity="0.85"/>
<rect x="27" y="80" width="11" height="11" rx="2" fill="#22D3EE" opacity="0.85"/>
<rect x="40" y="28" width="11" height="11" rx="2" fill="#F472B6" opacity="0.85"/>
<rect x="40" y="41" width="11" height="11" rx="2" fill="#22D3EE" opacity="0.85"/>
<rect x="40" y="54" width="11" height="11" rx="2" fill="#F472B6" opacity="0.85"/>
<rect x="40" y="67" width="11" height="11" rx="2" fill="#22D3EE" opacity="0.85"/>
<rect x="40" y="80" width="11" height="11" rx="2" fill="#F472B6" opacity="0.85"/>
<rect x="53" y="28" width="11" height="11" rx="2" fill="#22D3EE" opacity="0.85"/>
<rect x="53" y="41" width="11" height="11" rx="2" fill="#F472B6" opacity="0.85"/>
<rect x="53" y="54" width="11" height="11" rx="2" fill="#F472B6" opacity="0.85"/>
<rect x="53" y="67" width="11" height="11" rx="2" fill="#F472B6" opacity="0.85"/>
<rect x="53" y="80" width="11" height="11" rx="2" fill="#F472B6" opacity="0.85"/>
<rect x="66" y="28" width="11" height="11" rx="2" fill="#F472B6" opacity="0.85"/>
<rect x="66" y="41" width="11" height="11" rx="2" fill="#22D3EE" opacity="0.85"/>
<rect x="66" y="54" width="11" height="11" rx="2" fill="#F472B6" opacity="0.85"/>
<rect x="66" y="67" width="11" height="11" rx="2" fill="#F472B6" opacity="0.85"/>
<rect x="66" y="80" width="11" height="11" rx="2" fill="#22D3EE" opacity="0.85"/>
<rect x="79" y="28" width="11" height="11" rx="2" fill="#22D3EE" opacity="0.85"/>
<rect x="79" y="41" width="11" height="11" rx="2" fill="#F472B6" opacity="0.85"/>
<rect x="79" y="54" width="11" height="11" rx="2" fill="#22D3EE" opacity="0.85"/>
<rect x="79" y="67" width="11" height="11" rx="2" fill="#F472B6" opacity="0.85"/>
<rect x="79" y="80" width="11" height="11" rx="2" fill="#F472B6" opacity="0.85"/>
<rect x="92" y="28" width="11" height="11" rx="2" fill="#F472B6" opacity="0.85"/>
<rect x="92" y="41" width="11" height="11" rx="2" fill="#F472B6" opacity="0.85"/>
<rect x="92" y="54" width="11" height="11" rx="2" fill="#22D3EE" opacity="0.85"/>
<rect x="92" y="67" width="11" height="11" rx="2" fill="#F472B6" opacity="0.85"/>
<rect x="92" y="80" width="11" height="11" rx="2" fill="#22D3EE" opacity="0.85"/>
<rect x="105" y="28" width="11" height="11" rx="2" fill="#F472B6" opacity="0.85"/>
<rect x="105" y="41" width="11" height="11" rx="2" fill="#F472B6" opacity="0.85"/>
<rect x="105" y="54" width="11" height="11" rx="2" fill="#22D3EE" opacity="0.85"/>
<rect x="105" y="67" width="11" height="11" rx="2" fill="#22D3EE" opacity="0.85"/>
<rect x="105" y="80" width="11" height="11" rx="2" fill="#22D3EE" opacity="0.85"/>
  <path d="M126 60 h22 m-6 -5 l6 5 -6 5" stroke="#9AA6C4" stroke-width="2" fill="none" stroke-linecap="round" stroke-linejoin="round"/>
<rect x="160" y="28" width="11" height="11" rx="2" fill="#22D3EE" opacity="0.85"/>
<rect x="160" y="41" width="11" height="11" rx="2" fill="#22D3EE" opacity="0.85"/>
<rect x="160" y="54" width="11" height="11" rx="2" fill="#22D3EE" opacity="0.85"/>
<rect x="160" y="67" width="11" height="11" rx="2" fill="#22D3EE" opacity="0.85"/>
<rect x="160" y="80" width="11" height="11" rx="2" fill="#22D3EE" opacity="0.85"/>
<rect x="173" y="28" width="11" height="11" rx="2" fill="#22D3EE" opacity="0.85"/>
<rect x="173" y="41" width="11" height="11" rx="2" fill="#22D3EE" opacity="0.85"/>
<rect x="173" y="54" width="11" height="11" rx="2" fill="#22D3EE" opacity="0.85"/>
<rect x="173" y="67" width="11" height="11" rx="2" fill="#22D3EE" opacity="0.85"/>
<rect x="173" y="80" width="11" height="11" rx="2" fill="#22D3EE" opacity="0.85"/>
<rect x="186" y="28" width="11" height="11" rx="2" fill="#22D3EE" opacity="0.85"/>
<rect x="186" y="41" width="11" height="11" rx="2" fill="#22D3EE" opacity="0.85"/>
<rect x="186" y="54" width="11" height="11" rx="2" fill="#22D3EE" opacity="0.85"/>
<rect x="186" y="67" width="11" height="11" rx="2" fill="#22D3EE" opacity="0.85"/>
<rect x="186" y="80" width="11" height="11" rx="2" fill="#22D3EE" opacity="0.85"/>
<rect x="199" y="28" width="11" height="11" rx="2" fill="#22D3EE" opacity="0.85"/>
<rect x="199" y="41" width="11" height="11" rx="2" fill="#22D3EE" opacity="0.85"/>
<rect x="199" y="54" width="11" height="11" rx="2" fill="#22D3EE" opacity="0.85"/>
<rect x="199" y="67" width="11" height="11" rx="2" fill="#22D3EE" opacity="0.85"/>
<rect x="199" y="80" width="11" height="11" rx="2" fill="#22D3EE" opacity="0.85"/>
<rect x="212" y="28" width="11" height="11" rx="2" fill="#F472B6" opacity="0.85"/>
<rect x="212" y="41" width="11" height="11" rx="2" fill="#F472B6" opacity="0.85"/>
<rect x="212" y="54" width="11" height="11" rx="2" fill="#F472B6" opacity="0.85"/>
<rect x="212" y="67" width="11" height="11" rx="2" fill="#F472B6" opacity="0.85"/>
<rect x="212" y="80" width="11" height="11" rx="2" fill="#F472B6" opacity="0.85"/>
<rect x="225" y="28" width="11" height="11" rx="2" fill="#F472B6" opacity="0.85"/>
<rect x="225" y="41" width="11" height="11" rx="2" fill="#F472B6" opacity="0.85"/>
<rect x="225" y="54" width="11" height="11" rx="2" fill="#F472B6" opacity="0.85"/>
<rect x="225" y="67" width="11" height="11" rx="2" fill="#F472B6" opacity="0.85"/>
<rect x="225" y="80" width="11" height="11" rx="2" fill="#F472B6" opacity="0.85"/>
<rect x="238" y="28" width="11" height="11" rx="2" fill="#F472B6" opacity="0.85"/>
<rect x="238" y="41" width="11" height="11" rx="2" fill="#F472B6" opacity="0.85"/>
<rect x="238" y="54" width="11" height="11" rx="2" fill="#F472B6" opacity="0.85"/>
<rect x="238" y="67" width="11" height="11" rx="2" fill="#F472B6" opacity="0.85"/>
<rect x="238" y="80" width="11" height="11" rx="2" fill="#F472B6" opacity="0.85"/>
<rect x="251" y="28" width="11" height="11" rx="2" fill="#F472B6" opacity="0.85"/>
<rect x="251" y="41" width="11" height="11" rx="2" fill="#F472B6" opacity="0.85"/>
<rect x="251" y="54" width="11" height="11" rx="2" fill="#F472B6" opacity="0.85"/>
<rect x="251" y="67" width="11" height="11" rx="2" fill="#F472B6" opacity="0.85"/>
<rect x="251" y="80" width="11" height="11" rx="2" fill="#F472B6" opacity="0.85"/>
</svg>
